Coordinates
version=1
nRows=11
nColumns=40
inDegrees=yes

Units are S.I. units (second, meters, Newtons, ...)
Angles are in degrees.

endheader
time	pelvis_tilt	pelvis_list	pelvis_rotation	pelvis_tx	pelvis_ty	pelvis_tz	hip_flexion_r	hip_adduction_r	hip_rotation_r	knee_angle_r	knee_angle_r_beta	ankle_angle_r	subtalar_angle_r	mtp_angle_r	hip_flexion_l	hip_adduction_l	hip_rotation_l	knee_angle_l	knee_angle_l_beta	ankle_angle_l	subtalar_angle_l	mtp_angle_l	lumbar_extension	lumbar_bending	lumbar_rotation	arm_flex_r	arm_add_r	arm_rot_r	elbow_flex_r	pro_sup_r	wrist_flex_r	wrist_dev_r	arm_flex_l	arm_add_l	arm_rot_l	elbow_flex_l	pro_sup_l	wrist_flex_l	wrist_dev_l
     52.04214286	     -4.33748605	     -3.75037439	    -10.39159312	      0.99463344	      0.93026604	      0.41901736	     24.15874499	     -1.37801637	     -3.16492801	     21.24349257	     21.24349257	      7.76510181	      5.91490603	     -0.60591653	      9.43634986	     -3.70467524	    -11.82125206	     20.19962620	     20.19962620	     16.74411402	    -14.71324689	      1.45209823	     -9.70303629	      6.89605430	      3.32628960	    -19.01970828	    -11.58736219	     -5.02063731	     25.62184780	     46.41724756	      0.00000000	      0.00000000	     40.39755056	    -19.75701806	     -1.65812143	     58.22467775	     46.76316979	      0.00000000	      0.00000000
     52.06428571	     -4.54488836	     -3.42769469	    -10.60569948	      0.99579703	      0.92955414	      0.42228221	     23.91555026	     -1.31196072	     -3.89332112	     19.37050628	     19.37050628	      8.42137590	      8.24049368	      3.59851450	      8.79091117	     -3.49796092	    -12.24681294	     19.23570277	     19.23570277	     15.74682920	    -14.81703665	     -1.35649797	     -9.56153576	      6.57139897	      2.96080640	    -19.75719876	    -11.46240757	     -4.84399962	     26.51813093	     46.34479804	      0.00000000	      0.00000000	     40.28755449	    -19.84410440	     -5.10723177	     61.26158795	     47.10666015	      0.00000000	      0.00000000
     52.08642857	     -4.68571102	     -3.20762993	    -10.76644043	      0.99748665	      0.92893087	      0.42587144	     23.46235421	     -1.07415008	     -4.29029930	     17.73453543	     17.73453543	      7.81771446	      9.37061869	      4.15329514	      8.17953100	     -3.42114433	    -12.55659654	     18.66511170	     18.66511170	     15.92584277	    -14.45109817	     -1.58847638	     -9.39595822	      6.35728238	      3.24064872	    -20.25331337	    -11.23235305	     -4.73204605	     26.32360837	     46.33811363	      0.00000000	      0.00000000	     41.12378006	    -19.95576828	     -5.47104055	     62.18343208	     47.15875741	      0.00000000	      0.00000000
     52.10857143	     -4.81973083	     -2.97371267	    -10.87532372	      0.99964297	      0.92828578	      0.42958010	     23.13621153	     -0.89190459	     -4.51704076	     16.83520404	     16.83520404	      7.26698051	      9.88123918	      4.28279067	      7.51110251	     -3.32012361	    -12.85873888	     18.03237974	     18.03237974	     16.05199133	    -14.04604240	     -1.87664965	     -9.18115183	      6.15458974	      3.45215978	    -20.56466074	    -11.09852813	     -4.68083986	     26.26047859	     46.33249212	      0.00000000	      0.00000000	     41.63781333	    -19.97561931	     -6.04803867	     63.22411990	     47.22532496	      0.00000000	      0.00000000
     52.13071429	     -4.88743807	     -2.79648883	    -10.94197419	      1.00229048	      0.92772913	      0.43352797	     22.82841326	     -0.68016515	     -4.49030856	     16.53843937	     16.53843937	      6.66648708	      9.70249953	      3.39608249	      6.71073002	     -3.27317960	    -13.14431665	     17.35623351	     17.35623351	     16.11020321	    -13.60940076	     -2.43002924	     -9.04333664	      6.01746887	      3.50299560	    -20.61469232	    -11.13559193	     -4.66810040	     26.34770355	     46.32529471	      0.00000000	      0.00000000	     41.67392526	    -19.92458123	     -7.31809732	     64.86429845	     47.35055350	      0.00000000	      0.00000000
     52.15285714	     -5.03549214	     -2.67329813	    -10.89895780	      1.00523791	      0.92703410	      0.43762879	     22.58535438	     -0.41698540	     -4.25056988	     16.48450314	     16.48450314	      5.51938365	      8.80622728	      0.38137764	      6.05545393	     -3.31342850	    -13.28387834	     16.81202410	     16.81202410	     16.05971146	    -13.33150012	     -3.06671410	     -8.74834208	      5.96088616	      2.99409490	    -20.19826698	    -11.38151964	     -4.49888883	     26.34625292	     46.31212228	      0.00000000	      0.00000000	     41.16516697	    -20.10918364	     -9.24399289	     66.81495117	     47.52787365	      0.00000000	      0.00000000
     52.17500000	     -5.22642654	     -2.69302706	    -10.78785721	      1.00835196	      0.92645231	      0.44175674	     22.45129192	     -0.13922696	     -4.34500987	     16.90853482	     16.90853482	      5.51440065	      8.44294140	      0.18804745	      5.50409458	     -3.51128010	    -13.20954734	     16.44631279	     16.44631279	     16.28012166	    -13.16716006	     -3.06253947	     -8.42949009	      6.11251879	      3.09918283	    -19.99933598	    -11.61541884	     -4.51275337	     26.38667705	     46.31363030	      0.00000000	      0.00000000	     41.42565501	    -20.08721257	     -9.29593500	     67.02687624	     47.53719907	      0.00000000	      0.00000000
     52.19714286	     -5.14448008	     -2.61249192	    -10.72000809	      1.01186290	      0.92630080	      0.44637917	     22.08857519	      0.21223053	     -3.24058877	     17.49882049	     17.49882049	      5.04171058	      6.11070587	     -1.97315723	      4.43157818	     -3.56995336	    -13.50633607	     15.68522006	     15.68522006	     16.46607697	    -12.41882493	     -2.93973054	     -8.40349110	      6.01152944	      3.03173113	    -19.56974854	    -11.87765199	     -4.43934484	     26.40019417	     46.30929624	      0.00000000	      0.00000000	     40.97417203	    -19.95224639	    -10.52830431	     68.52454544	     47.64950335	      0.00000000	      0.00000000
     52.21928571	     -5.18939181	     -2.59642127	    -10.50194742	      1.01534598	      0.92601079	      0.45079805	     21.95483555	      0.40426635	     -3.08169159	     18.41280558	     18.41280558	      5.31598346	      5.19143087	     -2.61617616	      3.60145835	     -3.71144247	    -13.51953772	     15.08183578	     15.08183578	     16.57992753	    -11.93214441	     -2.78902489	     -8.21644629	      6.03712538	      3.00112408	    -19.14613292	    -12.19553138	     -4.44536292	     26.48588308	     46.30993880	      0.00000000	      0.00000000	     40.91792601	    -19.86401960	    -10.75829852	     68.82786447	     47.67092842	      0.00000000	      0.00000000
     52.24142857	     -5.24279610	     -2.72196187	    -10.22234440	      1.01879180	      0.92585688	      0.45548088	     21.61148717	      0.84072799	     -2.58416357	     18.94490772	     18.94490772	      5.24338666	      3.56716332	     -4.06256215	      2.87079750	     -4.09332488	    -13.63832741	     14.71980899	     14.71980899	     16.96586978	    -11.10484553	     -2.25469575	     -8.07055282	      6.17189763	      2.53676575	    -18.32709886	    -12.62278837	     -4.23583946	     26.35545056	     46.30322086	      0.00000000	      0.00000000	     40.23656332	    -19.87346982	    -11.92809213	     70.10304032	     47.77197218	      0.00000000	      0.00000000
     52.26357143	     -5.35656935	     -2.90656205	     -9.84514042	      1.02203952	      0.92569209	      0.46002224	     21.32719013	      1.19505052	     -2.73418877	     19.48984068	     19.48984068	      5.73313502	      3.09088746	     -4.28198287	      2.30126195	     -4.53579026	    -13.44177340	     14.45370042	     14.45370042	     16.99929944	    -10.85931752	     -2.16358954	     -7.85753942	      6.37189833	      2.50764273	    -17.86821289	    -12.93830696	     -4.26260205	     26.48947474	     46.30426207	      0.00000000	      0.00000000	     40.14445981	    -19.56493619	    -11.83745619	     70.12884188	     47.76511834	      0.00000000	      0.00000000
